<?xml version="1.0" encoding="UTF-8" standalone="no"?>
<svg
   xmlns:dc="http://purl.org/dc/elements/1.1/"
   xmlns:cc="http://creativecommons.org/ns#"
   xmlns:rdf="http://www.w3.org/1999/02/22-rdf-syntax-ns#"
   xmlns:svg="http://www.w3.org/2000/svg"
   xmlns="http://www.w3.org/2000/svg"
   xmlns:sodipodi="http://sodipodi.sourceforge.net/DTD/sodipodi-0.dtd"
   xmlns:inkscape="http://www.inkscape.org/namespaces/inkscape"
   viewBox="0 0 222.90499 83.799377"
   height="83.799377"
   width="222.905"
   xml:space="preserve"
   version="1.1"
   id="svg2"
   inkscape:version="0.91 r13725"
   sodipodi:docname="facebook1.svg"><sodipodi:namedview
     pagecolor="#ffffff"
     bordercolor="#666666"
     borderopacity="0.49411765"
     objecttolerance="10"
     gridtolerance="10"
     guidetolerance="10"
     inkscape:pageopacity="0"
     inkscape:pageshadow="2"
     inkscape:window-width="1280"
     inkscape:window-height="778"
     id="namedview3475"
     showgrid="false"
     fit-margin-top="0"
     fit-margin-left="0"
     fit-margin-right="0"
     fit-margin-bottom="0"
     inkscape:zoom="2.8284271"
     inkscape:cx="112.48091"
     inkscape:cy="2.0543393"
     inkscape:window-x="0"
     inkscape:window-y="0"
     inkscape:window-maximized="1"
     inkscape:current-layer="layer1" /><metadata
     id="metadata8"><rdf:RDF><cc:Work
         rdf:about=""><dc:format>image/svg+xml</dc:format><dc:type
           rdf:resource="http://purl.org/dc/dcmitype/StillImage" /><dc:title></dc:title></cc:Work></rdf:RDF></metadata><defs
     id="defs6" /><g
     inkscape:groupmode="layer"
     id="layer1"
     inkscape:label="Layer 1"><path
       id="path38"
       style="fill:#3d539e;fill-opacity:1;fill-rule:nonzero;stroke:none"
       d="m -7.6293945e-6,83.799377 224.9999976293945,0 0,-84 -224.9999976293945,0 0,84 z"
       inkscape:connector-curvature="0" /><g
       id="g3408"
       transform="matrix(0.67810731,0,0,0.68567903,36.148852,11.145887)"><path
         inkscape:connector-curvature="0"
         d="m 123.20762,51.69406 c -0.32075,2.2675 -2.126,3.455 -4.2685,3.28875 -0.53563,-0.0425 -1.02,-0.1525 -1.45513,-0.3225 -1.7265,-0.99125 -2.249,-2.65125 -2.40037,-3.69375 -0.002,0.0012 -0.003,0.0012 -0.003,0.0025 -0.11825,-1.61375 -0.24562,-4.98625 0.5415,-6.58 0.6675,-1.2225 1.8335,-1.8875 3.37938,-1.93875 2.19625,-0.0725 3.85787,1.0175 4.185,3.24625 0.28962,1.96375 0.30325,4.03375 0.0215,5.9975 z m -1.09025,-14.895 c -2.7545,-0.295 -5.13725,0.54 -7.15188,2.9625 l 0,-14.8575 -7.295,0.8825 0,34.39125 7.295,0 0,-2.04125 c 0.98388,0.7025 1.94038,1.5475 3.06,1.94875 4.2505,1.52375 9.8545,0.28125 11.81575,-5.40375 1.25875,-3.64625 1.22625,-7.38625 0.27875,-11.07375 -1.05125,-4.0975 -3.77812,-6.35875 -8.00262,-6.80875"
         style="fill:#ffffff;fill-opacity:1;fill-rule:nonzero;stroke:none"
         id="path40" /><path
         inkscape:connector-curvature="0"
         d="m 148.27874,51.32406 c -0.0238,0.15125 -0.05,0.30125 -0.0838,0.45125 -0.485,2.15125 -2.0475,3.31625 -4.13125,3.21875 -2.24125,-0.1025 -3.7775,-1.41125 -3.99375,-3.65125 -0.15625,-1.635 -0.16875,-3.305 -0.0325,-4.9425 0.2125,-2.58375 1.8275,-3.99625 4.25125,-3.94875 1.9925,0.03875 3.41125,1.1675 3.9175,3.0825 0.45875,1.92625 0.1175,5.35125 0.0725,5.79 z m -0.30875,-14.1 c -2.535,-0.67875 -5.095,-0.67 -7.62375,0.0037 -3.7875,1.00875 -6.32625,3.405 -7.14375,7.21625 -0.44625,2.08125 -0.535,4.2925 -0.4175,6.425 0.27,4.87875 3.28625,8.35375 7.97,9.4325 0.065,0.01625 0.13375,0.02875 0.2,0.04375 l -0.001,0 c 0,0 0.0137,0.0025 0.035,0.0063 0.18,0.03625 0.36,0.07 0.54125,0.0975 0.06,0.005 0.1225,0.01 0.18125,0.015 0.001,0 0.004,0 0.005,0 0.2275,0.0425 0.5,0.07375 0.78625,0.09625 0.91625,0.0975 2.08375,0.16625 3.0575,0.05125 0.006,0 0.01,-0.0012 0.015,-0.0025 0.0487,0 0.0987,0 0.14875,-0.0037 4.835,-0.25125 8.50375,-3.3 9.575,-7.97625 0.5875,-2.565 0.5875,-5.14375 0.0187,-7.71 -0.88875,-4.02875 -3.3325,-6.62125 -7.3475,-7.695"
         style="fill:#ffffff;fill-opacity:1;fill-rule:nonzero;stroke:none"
         id="path42" /><path
         inkscape:connector-curvature="0"
         d="m 38.464492,37.10281 -5.2065,0 0,-3.4625 c 0.380375,-3.2725 5.787,-2.65125 5.787,-2.65125 l 0.0015,-0.22375 -0.0015,-0.025 0,-5.37625 -8.75e-4,0 0,-0.0012 -0.004,0 c -0.186,-0.04375 -10.754875,-2.5525 -12.854,5.49125 0,0.0012 0,0.0038 -0.0024,0.0062 -0.0044,0.0175 -0.0092,0.035 -0.01375,0.0525 -0.33,1.00625 -0.3075,5.61125 -0.303125,6.19 l -4.51275,0 0,6.15875 4.7925,0 0,16.75125 6.979,0 0,-16.75125 5.337875,0 0.601125,-6.15875 -0.600125,0"
         style="fill:#ffffff;fill-opacity:1;fill-rule:nonzero;stroke:none"
         id="path44" /><path
         inkscape:connector-curvature="0"
         d="m 54.508492,51.66031 c -0.228125,2.1325 -1.954125,3.41375 -3.99475,3.33375 -2.09075,-0.08125 -3.474,-1.20125 -3.92625,-3.20625 -0.541,-2.855 0.09238,-6.24625 0.146,-6.52125 0.546375,-1.915 1.94,-2.8625 3.984875,-2.815 2.007875,0.045 3.55575,1.23375 3.78175,3.3125 0.211875,1.94625 0.21675,3.94875 0.0084,5.89625 z m 0.599,-11.61125 c -0.08537,-0.09375 -0.169875,-0.185 -0.243125,-0.26125 l 0,-0.0012 c -0.01175,-0.01125 -0.021,-0.0225 -0.03225,-0.03375 -0.1015,-0.105 -0.17275,-0.17625 -0.17275,-0.17625 l 0,0 c -1.643625,-1.67 -2.26375,-2.08625 -3.550875,-2.46625 -4.949625,-1.4575 -9.769,1.13375 -11.294875,6.115 -0.938,3.06 -0.951125,6.21 -0.401375,9.30875 1.1875,6.71125 6.17925,8.95875 11.4995,7.85125 1.632375,-0.34 2.84575,-1.3575 3.97125,-2.7725 0,0 0.1015,-0.12375 0.2255,-0.365 l 0,2.9525 6.807625,0 0,-23.07125 -6.807625,0 0,2.92 -10e-4,0"
         style="fill:#ffffff;fill-opacity:1;fill-rule:nonzero;stroke:none"
         id="path46" /><path
         inkscape:connector-curvature="0"
         d="m 82.708617,58.54656 c -0.315875,-1.155 -0.67525,-2.29375 -1.023375,-3.39625 l -0.328125,-1.22375 c 0,0 -8.53275,4.09625 -9.863375,-3.6875 -0.123,-1.28375 -0.08537,-2.61 0.09137,-3.8775 0.3315,-2.3925 1.7915,-3.67375 4.11375,-3.89375 0.784125,-0.075 1.600625,-0.03625 2.377375,0.095 1.05725,0.17875 2.089875,0.49625 3.247125,0.7825 0.402375,-1.23125 0.8135,-2.44875 1.19675,-3.675 0.06012,-0.19125 0.110375,-0.3575 0.149875,-0.50625 l 10e-4,0 0.191875,-0.73625 c -0.04775,-0.0975 -0.1645,-0.2 -0.32025,-0.29875 0,0 0,0 0,0.0012 -0.19625,-0.16375 -0.53025,-0.3 -1.05225,-0.49125 -0.209,-0.07625 -0.4185,-0.145 -0.627875,-0.21 -0.1875,-0.06 -0.310125,-0.095 -0.310125,-0.095 l 0.001,0 c -2.24175,-0.64 -4.543,-0.69 -6.880875,-0.44375 -4.92725,0.52 -8.272,3.42875 -9.19975,8.22875 -0.48675,2.525 -0.463875,5.0825 0.09475,7.615 0.837375,3.79375 3.13675,6.245 6.875,7.34125 2.4395,0.715 4.9395,0.75125 7.42625,0.3625 1.046,-0.16375 2.546,-0.705 3.622625,-1.09125 l 0.409625,-0.145 -0.193375,-0.65625 0.001,0.0012"
         style="fill:#ffffff;fill-opacity:1;fill-rule:nonzero;stroke:none"
         id="path48" /><path
         inkscape:connector-curvature="0"
         d="m 98.609492,46.37531 -7.88225,0 c 0.041,-1.5675 0.23725,-3.025 1.63075,-3.9125 1.48,-0.94 3.11475,-0.975 4.63675,-0.1325 1.538625,0.85 1.65925,2.385 1.61475,4.045 z m 6.561498,3.14625 c -0.0326,-1.5975 -0.0113,-3.2025 -0.23725,-4.77125 -0.62262,-4.30375 -3.24312,-7.0275 -7.480998,-7.73875 -1.617125,-0.27125 -3.327625,-0.235 -4.970625,-0.07875 -4.497625,0.42875 -7.911625,3.23 -8.611375,7.44625 -0.42475,2.5575 -0.479,5.2725 -0.13575,7.84 0.5185,3.865 2.399875,6.32625 5.65475,7.5075 0.001,0 0.001,0 0.002,0 0.01413,0.0012 0.02825,0.0038 0.0425,0.005 -0.0015,0.0012 -10e-4,0.0012 -0.0015,0.0025 1.485875,0.44375 8.756875,2.345 15.166498,-0.875 l -0.25737,-0.94375 c -0.002,0.0025 -0.006,0.0025 -0.009,0.0025 -0.29638,-1.25875 -0.65325,-2.505 -0.98925,-3.7525 l -0.0361,-0.1225 c 0,0 -0.13325,0.04875 -0.36962,0.12375 -0.005,0.0013 -0.0117,0.0013 -0.0166,0.0013 -0.27975,0.07375 -0.55662,0.15875 -0.8315,0.25125 -0.0507,0.01625 -0.10162,0.0325 -0.15237,0.0475 -0.97063,0.2725 -2.357378,0.61 -3.822253,0.79875 -1.2295,0.12375 -2.471125,0.12875 -3.724625,0.02125 -2.035625,-0.33625 -3.59325,-1.4275 -3.519,-4.005 l 1.163125,0 c 3.990625,0 7.980373,0 11.971623,0 0.0948,0 0.19088,0 0.28563,-0.0012 l -5e-4,0.0012 c 0,0 0.857,-0.01 0.89312,-0.01875 0,0 -5e-4,-0.22625 0,-0.25375 l -0.0132,-1.4875"
         style="fill:#ffffff;fill-opacity:1;fill-rule:nonzero;stroke:none"
         id="path50" /><path
         inkscape:connector-curvature="0"
         d="m 204.64499,37.36906 -7.73875,0 -6.72,10.5075 0,-22.9525 -7.295,0.885 0,34.39125 7.295,0 0,-10.525 6.72,10.54 7.73875,0 -7.29375,-11.44125 7.29375,-11.405"
         style="fill:#ffffff;fill-opacity:1;fill-rule:nonzero;stroke:none"
         id="path52" /><path
         inkscape:connector-curvature="0"
         d="m 173.15749,51.31906 c -0.0238,0.1525 -0.0487,0.3025 -0.0838,0.4525 -0.48625,2.15125 -2.0475,3.315 -4.13125,3.22 -2.24,-0.105 -3.7775,-1.415 -3.99375,-3.6525 -0.15625,-1.635 -0.17,-3.305 -0.0337,-4.94125 0.21625,-2.585 1.83,-3.9975 4.255,-3.95 1.98875,0.03875 3.40875,1.1675 3.915,3.0825 0.4575,1.925 0.11875,5.35125 0.0725,5.78875 z m -0.3075,-14.09875 c -2.535,-0.67875 -5.09625,-0.67 -7.625,0.0038 -3.78625,1.00875 -6.325,3.405 -7.1425,7.21625 -0.44625,2.08 -0.535,4.29125 -0.4175,6.42375 0.26875,4.88 3.28625,8.355 7.9675,9.43375 0.0675,0.01625 0.13625,0.0275 0.2025,0.0425 l -0.001,0 c 0,0 0.0112,0.0025 0.0325,0.0075 0.18,0.03625 0.3625,0.06875 0.54375,0.09625 0.06,0.005 0.12125,0.01125 0.18125,0.015 0.001,0.0012 0.004,0.0012 0.005,0.0012 0.22875,0.0425 0.5,0.07375 0.785,0.09625 0.9175,0.0975 2.08625,0.16625 3.05875,0.0525 0.005,-0.0012 0.007,-0.0012 0.015,-0.0037 0.05,0 0.0987,0 0.1475,-0.0038 4.835,-0.25125 8.505,-3.30125 9.57625,-7.97625 0.5875,-2.565 0.5875,-5.14375 0.0213,-7.71 -0.8925,-4.02875 -3.335,-6.62125 -7.35,-7.695"
         style="fill:#ffffff;fill-opacity:1;fill-rule:nonzero;stroke:none"
         id="path54" /></g></g></svg>