<?xml version="1.0" encoding="UTF-8" standalone="no"?>
<!-- Created with Inkscape (http://www.inkscape.org/) -->

<svg
   xmlns:dc="http://purl.org/dc/elements/1.1/"
   xmlns:cc="http://creativecommons.org/ns#"
   xmlns:rdf="http://www.w3.org/1999/02/22-rdf-syntax-ns#"
   xmlns:svg="http://www.w3.org/2000/svg"
   xmlns="http://www.w3.org/2000/svg"
   xmlns:sodipodi="http://sodipodi.sourceforge.net/DTD/sodipodi-0.dtd"
   xmlns:inkscape="http://www.inkscape.org/namespaces/inkscape"
   width="224.97099"
   height="85"
   viewBox="0 0 224.97099 85.000001"
   id="svg3368"
   version="1.1"
   inkscape:version="0.91 r13725"
   sodipodi:docname="linkedin2.svg">
  <defs
     id="defs3370" />
  <sodipodi:namedview
     id="base"
     pagecolor="#e1e1e1"
     bordercolor="#666666"
     borderopacity="1.0"
     inkscape:pageopacity="0.53333333"
     inkscape:pageshadow="2"
     inkscape:zoom="3.4461439"
     inkscape:cx="150.50844"
     inkscape:cy="68.36459"
     inkscape:document-units="px"
     inkscape:current-layer="layer1"
     showgrid="false"
     units="px"
     inkscape:window-width="1920"
     inkscape:window-height="1003"
     inkscape:window-x="1280"
     inkscape:window-y="22"
     inkscape:window-maximized="1"
     fit-margin-top="0"
     fit-margin-left="0"
     fit-margin-right="0"
     fit-margin-bottom="0" />
  <metadata
     id="metadata3373">
    <rdf:RDF>
      <cc:Work
         rdf:about="">
        <dc:format>image/svg+xml</dc:format>
        <dc:type
           rdf:resource="http://purl.org/dc/dcmitype/StillImage" />
        <dc:title></dc:title>
      </cc:Work>
    </rdf:RDF>
  </metadata>
  <g
     inkscape:groupmode="layer"
     id="layer3"
     inkscape:label="Layer 3"
     transform="translate(-23.085575,8.5815811)">
    <rect
       style="opacity:0.76499999;fill:#dadde2;fill-opacity:1"
       id="rect4238"
       width="224.97099"
       height="85"
       x="23.085575"
       y="-8.5815811" />
  </g>
  <g
     inkscape:label="Layer 1"
     inkscape:groupmode="layer"
     id="layer1"
     transform="translate(-23.085575,-967.7806)">
    <g
       id="g3490"
       transform="matrix(0.57080141,0,0,0.54400395,47.797858,461.7657)">
      <path
         inkscape:connector-curvature="0"
         d="m 45.784062,990.39038 8.080343,0 0,31.46552 14.961988,0 0,7.9703 -23.042331,0 0,-39.43582"
         style="fill:#211c1d;fill-opacity:1;fill-rule:nonzero;stroke:none"
         id="path56" />
      <path
         inkscape:connector-curvature="0"
         d="m 76.278887,989.80536 c 2.487539,0 4.504941,2.15815 4.504941,4.81332 0,2.66171 -2.017402,4.8145 -4.504941,4.8145 -2.484646,0 -4.503828,-2.15279 -4.503828,-4.8145 0,-2.65517 2.019182,-4.81332 4.503828,-4.81332 m -3.884265,13.28414 7.767085,0 0,26.7248 -7.767085,0 0,-26.7248"
         style="fill:#211c1d;fill-opacity:1;fill-rule:nonzero;stroke:none"
         id="path58" />
      <path
         inkscape:connector-curvature="0"
         d="m 112.62967,990.38622 7.76052,0 0,23.57018 8.79489,-10.8787 9.52061,0 -10.18683,12.3733 9.97329,14.3752 -9.76141,0 -8.23934,-13.2105 -0.10121,0 0,13.2105 -7.76052,0 0,-39.43998"
         style="fill:#211c1d;fill-opacity:1;fill-rule:nonzero;stroke:none"
         id="path60" />
      <path
         inkscape:connector-curvature="0"
         d="m 84.457661,1003.0943 7.455108,0 0,3.6534 0.104048,0 c 1.03381,-2.1052 3.572399,-4.3169 7.351337,-4.3169 7.869466,0 9.320356,5.5327 9.320356,12.7271 l 0,14.6564 -7.76697,0 0,-12.9959 c 0,-3.0992 -0.0525,-7.0814 -4.040701,-7.0814 -4.036807,0 -4.657649,3.3781 -4.657649,6.8597 l 0,13.2176 -7.765529,0 0,-26.72"
         style="fill:#211c1d;fill-opacity:1;fill-rule:nonzero;stroke:none"
         id="path62" />
      <path
         inkscape:connector-curvature="0"
         d="m 161.62579,1025.1876 c -2.48581,3.3758 -6.57378,5.3169 -10.61226,5.3169 -7.76719,0 -13.9795,-5.538 -13.9795,-14.1171 0,-8.5791 6.21231,-14.113 13.9795,-14.113 7.25057,0 11.80401,5.5339 11.80401,14.113 l 0,2.6017 -18.01743,0 c 0.61784,3.154 2.85062,5.2027 5.8475,5.2027 2.54198,0 4.24591,-1.3835 5.54165,-3.2663 l 5.43653,4.2621 z m -6.57378,-11.8418 c 0.0495,-2.7687 -1.96919,-5.0934 -4.76698,-5.0934 -3.41619,0 -5.27971,2.4923 -5.48492,5.0934 l 10.2519,0"
         style="fill:#211c1d;fill-opacity:1;fill-rule:nonzero;stroke:none"
         id="path64" />
      <path
         inkscape:connector-curvature="0"
         d="m 192.35591,1029.8095 -7.14602,0 0,-3.5422 -0.10121,0 c -1.19453,1.9364 -4.19475,4.2063 -7.71604,4.2063 -7.45911,0 -12.37568,-5.7544 -12.37568,-13.8906 0,-7.4738 4.34656,-14.3377 11.49202,-14.3377 3.2121,0 6.21621,0.9406 7.97741,3.5422 l 0.10121,0 0,-15.40128 7.76831,0 0,39.42328 z m -13.3639,-20.2562 c -3.87998,0 -6.20841,2.7687 -6.20841,6.8032 0,4.047 2.32843,6.8115 6.20841,6.8115 3.88722,0 6.21788,-2.7645 6.21788,-6.8115 0,-4.0345 -2.33066,-6.8032 -6.21788,-6.8032"
         style="fill:#211c1d;fill-opacity:1;fill-rule:nonzero;stroke:none"
         id="path66" />
      <path
         inkscape:connector-curvature="0"
         d="m 244.7571,1029.8262 -7.76053,0 0,-12.9959 c 0,-3.0993 -0.0567,-7.0856 -4.03791,-7.0856 -4.04237,0 -4.66021,3.3758 -4.66021,6.8621 l 0,13.2194 -7.76609,0 0,-26.7236 7.453,0 0,3.651 0.10622,0 c 1.03825,-2.101 3.57245,-4.3174 7.35178,-4.3174 7.86118,0 9.31374,5.5332 9.31374,12.7318 l 0,14.6582 z m -32.98403,-30.37637 c -2.49027,0 -4.50228,-2.15874 -4.50228,-4.81807 0,-2.65636 2.01201,-4.81451 4.50228,-4.81451 2.4847,0 4.50394,2.15815 4.50394,4.81451 0,2.65933 -2.01924,4.81807 -4.50394,4.81807 z m -3.88666,3.65277 7.77276,0 0,26.7248 -7.77276,0 0,-26.7248 z m 40.74066,-20.99522 -44.63733,0 c -2.13435,0 -3.86775,1.80916 -3.86775,4.03448 l 0,47.92454 c 0,2.2306 1.7334,4.041 3.86775,4.041 l 44.63733,0 c 2.13547,0 3.88054,-1.8104 3.88054,-4.041 l 0,-47.92454 c 0,-2.22532 -1.74507,-4.03448 -3.88054,-4.03448"
         style="opacity:0.76499999;fill:#0048bc;fill-opacity:1;fill-rule:nonzero;stroke:none"
         id="path68" />
      <text
         transform="scale(0.98623483,1.0139573)"
         sodipodi:linespacing="125%"
         id="text3479"
         y="1017.6835"
         x="257.64639"
         style="font-style:normal;font-weight:normal;font-size:9.45334721px;line-height:125%;font-family:sans-serif;letter-spacing:0px;word-spacing:0px;fill:#000000;fill-opacity:1;stroke:none;stroke-width:1px;stroke-linecap:butt;stroke-linejoin:miter;stroke-opacity:1"
         xml:space="preserve"><tspan
           y="1017.6835"
           x="257.64639"
           id="tspan3481"
           sodipodi:role="line">®</tspan></text>
    </g>
  </g>
</svg>
