<?xml version="1.0" encoding="UTF-8" standalone="no"?>
<!-- Created with Inkscape (http://www.inkscape.org/) -->

<svg
   xmlns:dc="http://purl.org/dc/elements/1.1/"
   xmlns:cc="http://creativecommons.org/ns#"
   xmlns:rdf="http://www.w3.org/1999/02/22-rdf-syntax-ns#"
   xmlns:svg="http://www.w3.org/2000/svg"
   xmlns="http://www.w3.org/2000/svg"
   xmlns:sodipodi="http://sodipodi.sourceforge.net/DTD/sodipodi-0.dtd"
   xmlns:inkscape="http://www.inkscape.org/namespaces/inkscape"
   width="224.97501"
   height="84"
   viewBox="0 0 224.975 84.000001"
   id="svg3377"
   version="1.1"
   inkscape:version="0.91 r13725"
   sodipodi:docname="twitter1.svg">
  <defs
     id="defs3379" />
  <sodipodi:namedview
     id="base"
     pagecolor="#dfdfdf"
     bordercolor="#666666"
     borderopacity="1.0"
     inkscape:pageopacity="0"
     inkscape:pageshadow="2"
     inkscape:zoom="4"
     inkscape:cx="77.32403"
     inkscape:cy="49.635042"
     inkscape:document-units="px"
     inkscape:current-layer="layer2"
     showgrid="false"
     units="px"
     inkscape:window-width="1280"
     inkscape:window-height="778"
     inkscape:window-x="1705"
     inkscape:window-y="108"
     inkscape:window-maximized="0"
     fit-margin-top="0"
     fit-margin-left="0"
     fit-margin-right="0"
     fit-margin-bottom="0" />
  <metadata
     id="metadata3382">
    <rdf:RDF>
      <cc:Work
         rdf:about="">
        <dc:format>image/svg+xml</dc:format>
        <dc:type
           rdf:resource="http://purl.org/dc/dcmitype/StillImage" />
        <dc:title></dc:title>
      </cc:Work>
    </rdf:RDF>
  </metadata>
  <g
     inkscape:groupmode="layer"
     id="layer2"
     inkscape:label="Layer 2"
     transform="translate(-34.335785,-0.75000763)">
    <rect
       style="opacity:1;fill:#ffffff;fill-opacity:1"
       id="rect3428"
       width="224.97501"
       height="84"
       x="34.335785"
       y="0.75000763" />
  </g>
  <g
     inkscape:label="Layer 1"
     inkscape:groupmode="layer"
     id="layer1"
     transform="translate(-34.335785,-969.11219)">
    <g
       transform="matrix(0.18281985,0,0,-0.18808491,89.398428,1077.2579)"
       id="g10">
      <g
         transform="scale(0.1,0.1)"
         id="g12">
        <path
           id="path14"
           style="fill:none;stroke:#69cff6;stroke-width:320;stroke-linecap:butt;stroke-linejoin:miter;stroke-miterlimit:10;stroke-dasharray:none;stroke-opacity:1"
           d="m 2615.77,3696.52 c -56,-7 -113,-47 -120,-107 -9,-166 -6,-332.01 -2,-498 -12,-87 79,-167.01 164,-144.99 66,9 118,69.99 122,134.99 5,165 8,330.99 -4,495.99 -9,73.01 -86,133.01 -160,119.01 z m 3276,45 c -85,4 -171,3 -256,-6 -174,-16 -325.99,-171 -340,-345 -9,-115 -9,-230 1,-345 5,-44.99 47.01,-74.99 84,-96.01 80,-35 176,38.01 180,121.01 4.01,100 -3.01,200 5,299 8.01,52.99 53.01,95 106,99 82.01,5 164,2 245.99,8.99 46.02,4.01 75,46.01 96.02,83.01 35,80 -37.01,178 -122.01,181 z m -1225,-289.01 c 54,110 239,112.01 295,3.01 -97.99,-4 -196.99,-5 -295,-3.01 z m 452.01,186.01 c -140,113 -340,126 -507.01,72 -96.99,-33.01 -175,-112 -211.99,-208.01 -66,-161.99 -15,-370 132.98,-470 124.01,-103 298.01,-108.99 449.01,-69.99 85.99,16.99 175.99,63 212.01,148 25,49 -12.01,120 -69,125 -79.01,13.99 -143.01,-44 -218.01,-58.01 -86,-15 -200,-7.99 -242.99,81.01 151.99,6 305,-3 456.99,6 46.99,2 103.01,21 118.01,70 21,114 -31.02,232 -120,304 z m -2799.01,100 c -64,32 -145,-12 -171,-74 -33,-104 -9,-216 -19,-323 16,-79.01 -72,-140 -144,-125 -49,2.99 -85,43 -100,87 -26,132 36,287 -46,406 -35,22.99 -78,49 -122,37 -59,-12 -108,-65 -115,-125 -4,-103 3,-206 -5,-308 -8,-49 -49,-93 -100,-97 -77,-17.01 -149,50.99 -155,125 -6,108 6,215.99 -8,323 -28,55 -96,102 -160,79 -70,-9 -107,-88 -102,-152 -3,-120 -10,-243 17,-361 51,-188.01 254,-317 446,-283 77,8.01 141,53.01 206,92 78,-56 170,-102.99 270,-97 201,-3.01 383,171.01 398,369.99 6,108.01 7,216.01 -4,323.01 -5,48 -43,85 -86,103 z m 1655,-484 c -46,27.99 -42.01,91 -49,137 98.01,0 196,-4.01 294.01,4 65,8 100,71 107.98,129 7.02,70 -45.99,136 -111.99,150 -100.99,12 -201.99,7 -303.01,7.99 -0.99,101.01 4.01,203.01 -6.99,305 -6,39.01 -39,67.01 -71,87.01 -54,31 -124,10 -171,-25 -33,-45 -47,-102.01 -45,-158 -12,-144.01 2,-288 11,-432 17,-132.01 31,-275.01 115,-385 116,-136 314.01,-152.99 479.01,-125.01 91,25 136.99,143 78.98,223 -80,103.01 -225,28.01 -327.99,82.01 z m -746,-6 c -53,23.99 -55,93 -65,141 86,1 172,-1 258,4 72,-10 143,51 145,122 14,73 -43,143 -111,159 -101,12 -202,7 -303.01,7.99 -1.99,107.01 6.01,215 -8.99,321.01 -33,88.99 -165,116 -230,46 -63,-48 -47,-139 -53,-208 1,-230 -8,-473 80,-690 74,-178 286.99,-229.99 461,-209 73,-5.99 150,41 164,116.01 13,51.99 -11,102.99 -44,142.99 -87,55 -200,10 -293,47 z m -690,590 c 69,-72 211,-37 233,63 36,99 -64,213 -166,185.99 -112,-13.99 -158,-181.99 -67,-248.99 z m -1629,-611.01 c -114.004,9.01 -229.004,-0.99 -344.004,9.01 -55,5.99 -100,55 -110,108 -6.993,55 -3.993,111 -5.996,167 153,2 305.996,-7 458,5 74.003,12 131,98 109,170.99 -7,58.01 -59,103.01 -114.997,112.01 -149.003,7 -299.003,1 -448,2 -1.003,59 -1.003,119 -6.003,178 -10.997,75 -97.004,127 -168.997,106 -79.003,-12 -129.003,-98.01 -117,-174 0,-183 -4.003,-367 2,-550 -1.003,-179.01 128,-347.99 298.997,-399.99 112.996,-35 232.996,-19.01 349.003,-21 62.997,0 142.997,-2.01 178.993,61.98 67.004,74.01 18.004,210 -80.996,225 z"
           inkscape:connector-curvature="0" />
        <path
           id="path16"
           style="fill:none;stroke:#ffffff;stroke-width:300;stroke-linecap:butt;stroke-linejoin:miter;stroke-miterlimit:10;stroke-dasharray:none;stroke-opacity:1"
           d="m 2615.77,3696.52 c -56,-7 -113,-47 -120,-107 -9,-166 -6,-332.01 -2,-498 -12,-87 79,-167.01 164,-144.99 66,9 118,69.99 122,134.99 5,165 8,330.99 -4,495.99 -9,73.01 -86,133.01 -160,119.01 z m 3276,45 c -85,4 -171,3 -256,-6 -174,-16 -325.99,-171 -340,-345 -9,-115 -9,-230 1,-345 5,-44.99 47.01,-74.99 84,-96.01 80,-35 176,38.01 180,121.01 4.01,100 -3.01,200 5,299 8.01,52.99 53.01,95 106,99 82.01,5 164,2 245.99,8.99 46.02,4.01 75,46.01 96.02,83.01 35,80 -37.01,178 -122.01,181 z m -1225,-289.01 c 54,110 239,112.01 295,3.01 -97.99,-4 -196.99,-5 -295,-3.01 z m 452.01,186.01 c -140,113 -340,126 -507.01,72 -96.99,-33.01 -175,-112 -211.99,-208.01 -66,-161.99 -15,-370 132.98,-470 124.01,-103 298.01,-108.99 449.01,-69.99 85.99,16.99 175.99,63 212.01,148 25,49 -12.01,120 -69,125 -79.01,13.99 -143.01,-44 -218.01,-58.01 -86,-15 -200,-7.99 -242.99,81.01 151.99,6 305,-3 456.99,6 46.99,2 103.01,21 118.01,70 21,114 -31.02,232 -120,304 z m -2799.01,100 c -64,32 -145,-12 -171,-74 -33,-104 -9,-216 -19,-323 16,-79.01 -72,-140 -144,-125 -49,2.99 -85,43 -100,87 -26,132 36,287 -46,406 -35,22.99 -78,49 -122,37 -59,-12 -108,-65 -115,-125 -4,-103 3,-206 -5,-308 -8,-49 -49,-93 -100,-97 -77,-17.01 -149,50.99 -155,125 -6,108 6,215.99 -8,323 -28,55 -96,102 -160,79 -70,-9 -107,-88 -102,-152 -3,-120 -10,-243 17,-361 51,-188.01 254,-317 446,-283 77,8.01 141,53.01 206,92 78,-56 170,-102.99 270,-97 201,-3.01 383,171.01 398,369.99 6,108.01 7,216.01 -4,323.01 -5,48 -43,85 -86,103 z m 1655,-484 c -46,27.99 -42.01,91 -49,137 98.01,0 196,-4.01 294.01,4 65,8 100,71 107.98,129 7.02,70 -45.99,136 -111.99,150 -100.99,12 -201.99,7 -303.01,7.99 -0.99,101.01 4.01,203.01 -6.99,305 -6,39.01 -39,67.01 -71,87.01 -54,31 -124,10 -171,-25 -33,-45 -47,-102.01 -45,-158 -12,-144.01 2,-288 11,-432 17,-132.01 31,-275.01 115,-385 116,-136 314.01,-152.99 479.01,-125.01 91,25 136.99,143 78.98,223 -80,103.01 -225,28.01 -327.99,82.01 z m -746,-6 c -53,23.99 -55,93 -65,141 86,1 172,-1 258,4 72,-10 143,51 145,122 14,73 -43,143 -111,159 -101,12 -202,7 -303.01,7.99 -1.99,107.01 6.01,215 -8.99,321.01 -33,88.99 -165,116 -230,46 -63,-48 -47,-139 -53,-208 1,-230 -8,-473 80,-690 74,-178 286.99,-229.99 461,-209 73,-5.99 150,41 164,116.01 13,51.99 -11,102.99 -44,142.99 -87,55 -200,10 -293,47 z m -690,590 c 69,-72 211,-37 233,63 36,99 -64,213 -166,185.99 -112,-13.99 -158,-181.99 -67,-248.99 z m -1629,-611.01 c -114.004,9.01 -229.004,-0.99 -344.004,9.01 -55,5.99 -100,55 -110,108 -6.993,55 -3.993,111 -5.996,167 153,2 305.996,-7 458,5 74.003,12 131,98 109,170.99 -7,58.01 -59,103.01 -114.997,112.01 -149.003,7 -299.003,1 -448,2 -1.003,59 -1.003,119 -6.003,178 -10.997,75 -97.004,127 -168.997,106 -79.003,-12 -129.003,-98.01 -117,-174 0,-183 -4.003,-367 2,-550 -1.003,-179.01 128,-347.99 298.997,-399.99 112.996,-35 232.996,-19.01 349.003,-21 62.997,0 142.997,-2.01 178.993,61.98 67.004,74.01 18.004,210 -80.996,225 z"
           inkscape:connector-curvature="0" />
        <path
           id="path18"
           style="fill:#69cff6;fill-opacity:1;fill-rule:nonzero;stroke:none"
           d="m 2615.77,3696.52 c -56,-7 -113,-47 -120,-107 -9,-166 -6,-332.01 -2,-498 -12,-87 79,-167.01 164,-144.99 66,9 118,69.99 122,134.99 5,165 8,330.99 -4,495.99 -9,73.01 -86,133.01 -160,119.01 z m 3276,45 c -85,4 -171,3 -256,-6 -174,-16 -325.99,-171 -340,-345 -9,-115 -9,-230 1,-345 5,-44.99 47.01,-74.99 84,-96.01 80,-35 176,38.01 180,121.01 4.01,100 -3.01,200 5,299 8.01,52.99 53.01,95 106,99 82.01,5 164,2 245.99,8.99 46.02,4.01 75,46.01 96.02,83.01 35,80 -37.01,178 -122.01,181 z m -1225,-289.01 c 54,110 239,112.01 295,3.01 -97.99,-4 -196.99,-5 -295,-3.01 z m 452.01,186.01 c -140,113 -340,126 -507.01,72 -96.99,-33.01 -175,-112 -211.99,-208.01 -66,-161.99 -15,-370 132.98,-470 124.01,-103 298.01,-108.99 449.01,-69.99 85.99,16.99 175.99,63 212.01,148 25,49 -12.01,120 -69,125 -79.01,13.99 -143.01,-44 -218.01,-58.01 -86,-15 -200,-7.99 -242.99,81.01 151.99,6 305,-3 456.99,6 46.99,2 103.01,21 118.01,70 21,114 -31.02,232 -120,304 z m -2799.01,100 c -64,32 -145,-12 -171,-74 -33,-104 -9,-216 -19,-323 16,-79.01 -72,-140 -144,-125 -49,2.99 -85,43 -100,87 -26,132 36,287 -46,406 -35,22.99 -78,49 -122,37 -59,-12 -108,-65 -115,-125 -4,-103 3,-206 -5,-308 -8,-49 -49,-93 -100,-97 -77,-17.01 -149,50.99 -155,125 -6,108 6,215.99 -8,323 -28,55 -96,102 -160,79 -70,-9 -107,-88 -102,-152 -3,-120 -10,-243 17,-361 51,-188.01 254,-317 446,-283 77,8.01 141,53.01 206,92 78,-56 170,-102.99 270,-97 201,-3.01 383,171.01 398,369.99 6,108.01 7,216.01 -4,323.01 -5,48 -43,85 -86,103 z m 1655,-484 c -46,27.99 -42.01,91 -49,137 98.01,0 196,-4.01 294.01,4 65,8 100,71 107.98,129 7.02,70 -45.99,136 -111.99,150 -100.99,12 -201.99,7 -303.01,7.99 -0.99,101.01 4.01,203.01 -6.99,305 -6,39.01 -39,67.01 -71,87.01 -54,31 -124,10 -171,-25 -33,-45 -47,-102.01 -45,-158 -12,-144.01 2,-288 11,-432 17,-132.01 31,-275.01 115,-385 116,-136 314.01,-152.99 479.01,-125.01 91,25 136.99,143 78.98,223 -80,103.01 -225,28.01 -327.99,82.01 z m -746,-6 c -53,23.99 -55,93 -65,141 86,1 172,-1 258,4 72,-10 143,51 145,122 14,73 -43,143 -111,159 -101,12 -202,7 -303.01,7.99 -1.99,107.01 6.01,215 -8.99,321.01 -33,88.99 -165,116 -230,46 -63,-48 -47,-139 -53,-208 1,-230 -8,-473 80,-690 74,-178 286.99,-229.99 461,-209 73,-5.99 150,41 164,116.01 13,51.99 -11,102.99 -44,142.99 -87,55 -200,10 -293,47 z m -690,590 c 69,-72 211,-37 233,63 36,99 -64,213 -166,185.99 -112,-13.99 -158,-181.99 -67,-248.99 z m -1629,-611.01 c -114.004,9.01 -229.004,-0.99 -344.004,9.01 -55,5.99 -100,55 -110,108 -6.993,55 -3.993,111 -5.996,167 153,2 305.996,-7 458,5 74.003,12 131,98 109,170.99 -7,58.01 -59,103.01 -114.997,112.01 -149.003,7 -299.003,1 -448,2 -1.003,59 -1.003,119 -6.003,178 -10.997,75 -97.004,127 -168.997,106 -79.003,-12 -129.003,-98.01 -117,-174 0,-183 -4.003,-367 2,-550 -1.003,-179.01 128,-347.99 298.997,-399.99 112.996,-35 232.996,-19.01 349.003,-21 62.997,0 142.997,-2.01 178.993,61.98 67.004,74.01 18.004,210 -80.996,225"
           inkscape:connector-curvature="0" />
      </g>
    </g>
  </g>
</svg>
