<?xml version="1.0" encoding="UTF-8" standalone="no"?>
<!-- Created with Inkscape (http://www.inkscape.org/) -->

<svg
   xmlns:dc="http://purl.org/dc/elements/1.1/"
   xmlns:cc="http://creativecommons.org/ns#"
   xmlns:rdf="http://www.w3.org/1999/02/22-rdf-syntax-ns#"
   xmlns:svg="http://www.w3.org/2000/svg"
   xmlns="http://www.w3.org/2000/svg"
   xmlns:sodipodi="http://sodipodi.sourceforge.net/DTD/sodipodi-0.dtd"
   xmlns:inkscape="http://www.inkscape.org/namespaces/inkscape"
   width="24mm"
   height="24mm"
   viewBox="0 0 85.03937 85.039369"
   id="svg2"
   version="1.1"
   inkscape:version="0.91 r13725"
   sodipodi:docname="utraque_logo.svg"
   inkscape:export-filename="/Users/zhu/OLD_BOOTCAMP/svg/utraque_logo.png"
   inkscape:export-xdpi="90"
   inkscape:export-ydpi="90">
  <defs
     id="defs4" />
  <sodipodi:namedview
     id="base"
     pagecolor="#ffffff"
     bordercolor="#666666"
     borderopacity="1.0"
     inkscape:pageopacity="0.0"
     inkscape:pageshadow="2"
     inkscape:zoom="5.6568543"
     inkscape:cx="72.439726"
     inkscape:cy="48.049193"
     inkscape:document-units="px"
     inkscape:current-layer="layer2"
     showgrid="true"
     inkscape:snap-grids="true"
     inkscape:snap-global="false"
     inkscape:window-width="1280"
     inkscape:window-height="778"
     inkscape:window-x="0"
     inkscape:window-y="0"
     inkscape:window-maximized="1"
     fit-margin-top="0"
     fit-margin-left="0"
     fit-margin-right="0"
     fit-margin-bottom="0"
     units="mm">
    <inkscape:grid
       type="xygrid"
       id="grid3336"
       originx="0"
       originy="-4.4094578e-09" />
  </sodipodi:namedview>
  <metadata
     id="metadata7">
    <rdf:RDF>
      <cc:Work
         rdf:about="">
        <dc:format>image/svg+xml</dc:format>
        <dc:type
           rdf:resource="http://purl.org/dc/dcmitype/StillImage" />
        <dc:title />
      </cc:Work>
    </rdf:RDF>
  </metadata>
  <g
     inkscape:label="Layer 1"
     inkscape:groupmode="layer"
     id="layer1"
     transform="translate(0,-967.32284)" />
  <g
     inkscape:groupmode="layer"
     id="layer2"
     inkscape:label="Layer 2"
     transform="translate(0,-967.32284)">
    <g
       id="g5937"
       transform="translate(1.5909903,-21.92031)">
      <g
         transform="translate(62,-41)"
         id="g4728">
        <path
           style="opacity:1;fill:#7d7dff;fill-opacity:1"
           inkscape:transform-center-x="0.0017983131"
           inkscape:transform-center-y="0.064795254"
           d="m 10,1052.3622 -5.0000199,0 -4.9999801,0 0.00298702,-4.9999 0.00199135,-5.0001 4.99792903,4.9983 z"
           id="path3422"
           inkscape:connector-curvature="0" />
        <path
           inkscape:connector-curvature="0"
           id="path4708"
           d="m 0,1042.3622 -5.0000199,0 -4.9999801,0 0.00299,-4.9999 0.00199,-5.0001 4.997929,4.9983 z"
           inkscape:transform-center-y="0.064795254"
           inkscape:transform-center-x="0.0017983131"
           style="opacity:1;fill:#7d7dff;fill-opacity:1" />
        <path
           style="opacity:1;fill:#7d7dff;fill-opacity:1"
           inkscape:transform-center-x="0.0017983131"
           inkscape:transform-center-y="0.064795254"
           d="m 20,1062.3622 -5.00002,0 -4.99998,0 0.003,-4.9999 0.002,-5.0001 4.997929,4.9983 z"
           id="path4710"
           inkscape:connector-curvature="0" />
        <path
           inkscape:connector-curvature="0"
           id="path4712"
           d="m -10,1042.3622 5,0 4.99999991,0 0,4.9999 0,5.0001 -4.99789991,-4.9983 z"
           inkscape:transform-center-y="-0.064804746"
           inkscape:transform-center-x="-0.001804737"
           style="opacity:1;fill:#2d2dff;fill-opacity:1" />
        <path
           style="opacity:1;fill:#2d2dff;fill-opacity:1"
           inkscape:transform-center-x="-0.001804737"
           inkscape:transform-center-y="-0.064804746"
           d="m 0,1052.3622 5,0 5,0 0,4.9999 0,5.0001 -4.9979,-4.9983 z"
           id="path4714"
           inkscape:connector-curvature="0" />
      </g>
      <g
         transform="matrix(1,0,0,-1,62,2084.7244)"
         id="g4735">
        <path
           inkscape:connector-curvature="0"
           id="path4737"
           d="m 10,1052.3622 -5.0000199,0 -4.9999801,0 0.00298702,-4.9999 0.00199135,-5.0001 4.99792903,4.9983 z"
           inkscape:transform-center-y="0.064795254"
           inkscape:transform-center-x="0.0017983131"
           style="opacity:1;fill:#7d7dff;fill-opacity:1" />
        <path
           style="opacity:1;fill:#7d7dff;fill-opacity:1"
           inkscape:transform-center-x="0.0017983131"
           inkscape:transform-center-y="0.064795254"
           d="m 0,1042.3622 -5.0000199,0 -4.9999801,0 0.00299,-4.9999 0.00199,-5.0001 4.997929,4.9983 z"
           id="path4739"
           inkscape:connector-curvature="0" />
        <path
           inkscape:connector-curvature="0"
           id="path4741"
           d="m 20,1062.3622 -5.00002,0 -4.99998,0 0.003,-4.9999 0.002,-5.0001 4.997929,4.9983 z"
           inkscape:transform-center-y="0.064795254"
           inkscape:transform-center-x="0.0017983131"
           style="opacity:1;fill:#7d7dff;fill-opacity:1" />
        <path
           style="opacity:1;fill:#2d2dff;fill-opacity:1"
           inkscape:transform-center-x="-0.001804737"
           inkscape:transform-center-y="-0.064804746"
           d="m -10,1042.3622 5,0 4.99999991,0 0,4.9999 0,5.0001 -4.99789991,-4.9983 z"
           id="path4743"
           inkscape:connector-curvature="0" />
        <path
           inkscape:connector-curvature="0"
           id="path4745"
           d="m 0,1052.3622 5,0 5,0 0,4.9999 0,5.0001 -4.9979,-4.9983 z"
           inkscape:transform-center-y="-0.064804746"
           inkscape:transform-center-x="-0.001804737"
           style="opacity:1;fill:#2d2dff;fill-opacity:1" />
      </g>
      <g
         transform="matrix(-1,0,0,1,41,-40.999995)"
         id="g4763">
        <path
           inkscape:connector-curvature="0"
           id="path4765"
           d="m 10,1052.3622 -5.0000199,0 -4.9999801,0 0.00298702,-4.9999 0.00199135,-5.0001 4.99792903,4.9983 z"
           inkscape:transform-center-y="0.064795254"
           inkscape:transform-center-x="0.0017983131"
           style="opacity:1;fill:#7d7dff;fill-opacity:1" />
        <path
           style="opacity:1;fill:#7d7dff;fill-opacity:1"
           inkscape:transform-center-x="0.0017983131"
           inkscape:transform-center-y="0.064795254"
           d="m 0,1042.3622 -5.0000199,0 -4.9999801,0 0.00299,-4.9999 0.00199,-5.0001 4.997929,4.9983 z"
           id="path4767"
           inkscape:connector-curvature="0" />
        <path
           inkscape:connector-curvature="0"
           id="path4769"
           d="m 20,1062.3622 -5.00002,0 -4.99998,0 0.003,-4.9999 0.002,-5.0001 4.997929,4.9983 z"
           inkscape:transform-center-y="0.064795254"
           inkscape:transform-center-x="0.0017983131"
           style="opacity:1;fill:#7d7dff;fill-opacity:1" />
        <path
           style="opacity:1;fill:#2d2dff;fill-opacity:1"
           inkscape:transform-center-x="-0.001804737"
           inkscape:transform-center-y="-0.064804746"
           d="m -10,1042.3622 5,0 4.99999991,0 0,4.9999 0,5.0001 -4.99789991,-4.9983 z"
           id="path4771"
           inkscape:connector-curvature="0" />
        <path
           inkscape:connector-curvature="0"
           id="path4773"
           d="m 0,1052.3622 5,0 5,0 0,4.9999 0,5.0001 -4.9979,-4.9983 z"
           inkscape:transform-center-y="-0.064804746"
           inkscape:transform-center-x="-0.001804737"
           style="opacity:1;fill:#2d2dff;fill-opacity:1" />
      </g>
      <g
         id="g5918">
        <path
           inkscape:connector-curvature="0"
           id="path4821"
           d="m 51,1011.3622 -5.00002,0 -4.99998,0 0.003,-4.9999 0.002,-5.0001 4.997929,4.9983 z"
           inkscape:transform-center-y="0.064795254"
           inkscape:transform-center-x="0.0017983131"
           style="opacity:1;fill:#7d7dff;fill-opacity:1" />
        <path
           style="opacity:1;fill:#7d7dff;fill-opacity:1"
           inkscape:transform-center-x="0.0017983131"
           inkscape:transform-center-y="0.064795254"
           d="m 41,1001.3622 -5.00002,0 -4.99998,0 0.003,-4.9999 0.002,-5.0001 4.997929,4.9983 z"
           id="path4823"
           inkscape:connector-curvature="0" />
        <path
           inkscape:connector-curvature="0"
           id="path4825"
           d="m 61,1021.3622 -5.00002,0 -4.99998,0 0.003,-4.9999 0.002,-5.0001 4.997929,4.9983 z"
           inkscape:transform-center-y="0.064795254"
           inkscape:transform-center-x="0.0017983131"
           style="opacity:1;fill:#7d7dff;fill-opacity:1" />
        <path
           style="opacity:1;fill:#00003c;fill-opacity:1"
           inkscape:transform-center-x="-0.001804737"
           inkscape:transform-center-y="-0.064804746"
           d="m 31,1001.3622 5,0 5,0 0,4.9999 0,5.0001 -4.9979,-4.9983 z"
           id="path4827"
           inkscape:connector-curvature="0" />
        <path
           inkscape:connector-curvature="0"
           id="path4829"
           d="m 41,1011.3622 5,0 5,0 0,4.9999 0,5.0001 -4.9979,-4.9983 z"
           inkscape:transform-center-y="-0.064804746"
           inkscape:transform-center-x="-0.001804737"
           style="opacity:1;fill:#00003c;fill-opacity:1" />
      </g>
      <g
         id="g5930">
        <path
           style="opacity:1;fill:#7d7dff;fill-opacity:1"
           inkscape:transform-center-x="0.0017983131"
           inkscape:transform-center-y="0.064795254"
           d="m 51,1032.3622 -5.00002,0 -4.99998,0 0.003,4.9999 0.002,5.0001 4.997929,-4.9983 z"
           id="path4833"
           inkscape:connector-curvature="0" />
        <path
           inkscape:connector-curvature="0"
           id="path4835"
           d="m 41,1042.3622 -5.00002,0 -4.99998,0 0.003,4.9999 0.002,5.0001 4.997929,-4.9983 z"
           inkscape:transform-center-y="0.064795254"
           inkscape:transform-center-x="0.0017983131"
           style="opacity:1;fill:#7d7dff;fill-opacity:1" />
        <path
           style="opacity:1;fill:#7d7dff;fill-opacity:1"
           inkscape:transform-center-x="0.0017983131"
           inkscape:transform-center-y="0.064795254"
           d="m 61,1022.3622 -5.00002,0 -4.99998,0 0.003,4.9999 0.002,5.0001 4.997929,-4.9983 z"
           id="path4837"
           inkscape:connector-curvature="0" />
        <path
           inkscape:connector-curvature="0"
           id="path4839"
           d="m 31,1042.3622 5,0 5,0 0,-4.9999 0,-5.0001 -4.9979,4.9983 z"
           inkscape:transform-center-y="-0.064804746"
           inkscape:transform-center-x="-0.001804737"
           style="opacity:1;fill:#00003c;fill-opacity:1" />
        <path
           style="opacity:1;fill:#00003c;fill-opacity:1"
           inkscape:transform-center-x="-0.001804737"
           inkscape:transform-center-y="-0.064804746"
           d="m 41,1032.3622 5,0 5,0 0,-4.9999 0,-5.0001 -4.9979,4.9983 z"
           id="path4841"
           inkscape:connector-curvature="0" />
      </g>
      <g
         id="g5899">
        <path
           style="opacity:1;fill:#7d7dff;fill-opacity:1"
           inkscape:transform-center-x="0.0017983131"
           inkscape:transform-center-y="0.064795254"
           d="m 10,1011.3622 5.00002,0 4.99998,0 -0.003,-4.9999 -0.002,-5.0001 -4.997929,4.9983 z"
           id="path4847"
           inkscape:connector-curvature="0" />
        <path
           inkscape:connector-curvature="0"
           id="path4849"
           d="m 20,1001.3622 5.00002,0 4.99998,0 -0.003,-4.9999 -0.002,-5.0001 -4.997929,4.9983 z"
           inkscape:transform-center-y="0.064795254"
           inkscape:transform-center-x="0.0017983131"
           style="opacity:1;fill:#7d7dff;fill-opacity:1" />
        <path
           style="opacity:1;fill:#7d7dff;fill-opacity:1"
           inkscape:transform-center-x="0.0017983131"
           inkscape:transform-center-y="0.064795254"
           d="m 0,1021.3622 5.00002,0 4.99998,0 -0.003,-4.9999 -0.002,-5.0001 -4.997929,4.9983 z"
           id="path4851"
           inkscape:connector-curvature="0" />
        <path
           inkscape:connector-curvature="0"
           id="path4853"
           d="m 30,1001.3622 -5,0 -5,0 0,4.9999 0,5.0001 4.9979,-4.9983 z"
           inkscape:transform-center-y="-0.064804746"
           inkscape:transform-center-x="-0.001804737"
           style="opacity:1;fill:#00003c;fill-opacity:1" />
        <path
           style="opacity:1;fill:#00003c;fill-opacity:1"
           inkscape:transform-center-x="-0.001804737"
           inkscape:transform-center-y="-0.064804746"
           d="m 20,1011.3622 -5,0 -5,0 0,4.9999 0,5.0001 4.9979,-4.9983 z"
           id="path4855"
           inkscape:connector-curvature="0" />
      </g>
      <g
         id="g5906">
        <path
           inkscape:connector-curvature="0"
           id="path4859"
           d="m 10,1032.3622 5.00002,0 4.99998,0 -0.003,4.9999 -0.002,5.0001 -4.997929,-4.9983 z"
           inkscape:transform-center-y="0.064795254"
           inkscape:transform-center-x="0.0017983131"
           style="opacity:1;fill:#7d7dff;fill-opacity:1" />
        <path
           style="opacity:1;fill:#7d7dff;fill-opacity:1"
           inkscape:transform-center-x="0.0017983131"
           inkscape:transform-center-y="0.064795254"
           d="m 20,1042.3622 5.00002,0 4.99998,0 -0.003,4.9999 -0.002,5.0001 -4.997929,-4.9983 z"
           id="path4861"
           inkscape:connector-curvature="0" />
        <path
           inkscape:connector-curvature="0"
           id="path4863"
           d="m 0,1022.3622 5.00002,0 4.99998,0 -0.003,4.9999 -0.002,5.0001 -4.997929,-4.9983 z"
           inkscape:transform-center-y="0.064795254"
           inkscape:transform-center-x="0.0017983131"
           style="opacity:1;fill:#7d7dff;fill-opacity:1" />
        <path
           style="opacity:1;fill:#00003c;fill-opacity:1"
           inkscape:transform-center-x="-0.001804737"
           inkscape:transform-center-y="-0.064804746"
           d="m 30,1042.3622 -5,0 -5,0 0,-4.9999 0,-5.0001 4.9979,4.9983 z"
           id="path4865"
           inkscape:connector-curvature="0" />
        <path
           inkscape:connector-curvature="0"
           id="path4867"
           d="m 20,1032.3622 -5,0 -5,0 0,-4.9999 0,-5.0001 4.9979,4.9983 z"
           inkscape:transform-center-y="-0.064804746"
           inkscape:transform-center-x="-0.001804737"
           style="opacity:1;fill:#00003c;fill-opacity:1" />
      </g>
      <g
         id="g5557"
         transform="matrix(-1,0,0,-1,41,2084.7244)">
        <path
           style="opacity:1;fill:#7d7dff;fill-opacity:1"
           inkscape:transform-center-x="0.0017983131"
           inkscape:transform-center-y="0.064795254"
           d="m 10,1052.3622 -5.0000199,0 -4.9999801,0 0.00298702,-4.9999 0.00199135,-5.0001 4.99792903,4.9983 z"
           id="path5559"
           inkscape:connector-curvature="0" />
        <path
           inkscape:connector-curvature="0"
           id="path5561"
           d="m 0,1042.3622 -5.0000199,0 -4.9999801,0 0.00299,-4.9999 0.00199,-5.0001 4.997929,4.9983 z"
           inkscape:transform-center-y="0.064795254"
           inkscape:transform-center-x="0.0017983131"
           style="opacity:1;fill:#7d7dff;fill-opacity:1" />
        <path
           style="opacity:1;fill:#7d7dff;fill-opacity:1"
           inkscape:transform-center-x="0.0017983131"
           inkscape:transform-center-y="0.064795254"
           d="m 20,1062.3622 -5.00002,0 -4.99998,0 0.003,-4.9999 0.002,-5.0001 4.997929,4.9983 z"
           id="path5563"
           inkscape:connector-curvature="0" />
        <path
           inkscape:connector-curvature="0"
           id="path5565"
           d="m -10,1042.3622 5,0 4.99999991,0 0,4.9999 0,5.0001 -4.99789991,-4.9983 z"
           inkscape:transform-center-y="-0.064804746"
           inkscape:transform-center-x="-0.001804737"
           style="opacity:1;fill:#2d2dff;fill-opacity:1" />
        <path
           style="opacity:1;fill:#2d2dff;fill-opacity:1"
           inkscape:transform-center-x="-0.001804737"
           inkscape:transform-center-y="-0.064804746"
           d="m 0,1052.3622 5,0 5,0 0,4.9999 0,5.0001 -4.9979,-4.9983 z"
           id="path5567"
           inkscape:connector-curvature="0" />
      </g>
      <rect
         transform="matrix(0.70710677,0.70710679,-0.70710677,0.70710679,0,0)"
         y="687.21027"
         x="745.19305"
         height="12.727922"
         width="12.727922"
         id="rect5633"
         style="opacity:1;fill:#7d7dff;fill-opacity:1" />
    </g>
    <g
       style="font-style:normal;font-variant:normal;font-weight:normal;font-stretch:normal;font-size:12.5px;line-height:125%;font-family:Papyrus;-inkscape-font-specification:Papyrus;letter-spacing:0px;word-spacing:0px;fill:#000080;fill-opacity:1;stroke:none;stroke-width:1px;stroke-linecap:butt;stroke-linejoin:miter;stroke-opacity:1"
       id="text6083">
      <path
         d="m 27.911913,1036.4727 -0.01221,0.3723 -0.12207,0.4516 0.01221,0.2259 -0.02441,0.1709 0.07324,0.2868 0,0.012 q 0,0.1099 -0.140381,0.3418 l -0.08545,0.1587 -0.134278,0.037 0.08545,0.1282 q 0.14038,0.1892 0.183105,0.2625 0.04273,0.067 0.04273,0.1342 l -0.06104,0.3663 0,0.2014 -0.07935,0.024 0.04883,0.061 -0.04883,0.2014 0,0.024 0.115967,0.7386 -0.03662,0.1465 q -0.152587,0.067 -0.152587,0.1648 0,0.098 0.164794,0.2258 l 0.01221,0.5249 -0.05493,0.1465 q -0.02441,0.098 -0.02441,0.091 0,0.067 0.07935,0.2075 0.06104,0.1343 0.06104,0.2503 0,0.1037 -0.08545,0.238 0.122071,0.1343 0.146485,0.177 l -0.01221,0.4883 0.02441,0.6104 0,0.079 q -0.152588,0.031 -0.250244,0.092 -0.09766,0.055 -0.384522,0.2807 l -0.05493,0.085 -0.109864,-0.012 -0.238037,0.1892 q -0.06104,-0.1343 -0.06104,-0.2503 0,-0.2136 0.09766,-0.3235 l 0.09155,0 q -0.0061,-0.098 -0.03662,-0.1342 -0.03052,-0.037 -0.140381,-0.067 l 0.01221,-0.6103 0.04883,-0.043 -0.03662,-0.2868 q -0.05493,-0.037 -0.09766,-0.037 -0.01221,0 -0.03052,0.01 -0.01221,0 -0.03662,0.01 l -0.06104,0.067 -0.09766,0 q -0.07935,0 -0.115967,0.037 l -0.146484,0.098 -0.250245,0.1098 -0.915527,0.6287 -0.299072,0.1099 -0.396729,0.2136 -0.537109,0.1892 -0.415039,0.1221 q -0.238037,0.1159 -0.372315,0.1159 l -0.22583,0 -0.378418,0.1221 -0.335693,0.012 -0.213623,0.024 -0.189209,-0.024 -0.445557,-0.085 -0.274658,-0.1282 -0.201416,-0.061 -0.250244,-0.2381 -0.09766,-0.1098 -0.201416,0.024 -0.128174,-0.098 -0.06103,-0.1282 -0.22583,-0.177 q -0.06104,-0.091 -0.06104,-0.3845 l 0,-0.098 -0.189209,-0.1038 -0.07324,-0.2136 -0.08545,-0.3723 -0.06714,-0.1404 0.177002,-0.3113 q -0.158691,-0.1343 -0.22583,-0.2441 -0.06104,-0.116 -0.06104,-0.2686 0,-0.1465 0.04883,-0.2502 l 0.152588,-0.3601 0.01221,-0.4883 0.09766,-0.098 q 0.12207,0.024 0.164794,0.024 0.08545,0 0.08545,-0.079 0,-0.079 -0.122071,-0.1343 l 0,-0.2502 -0.128173,-0.037 0.152587,-0.7507 0.06104,-0.1404 0.06104,-0.1098 0.140381,-0.4273 0.09766,-0.1465 0.04883,-0.1403 0.152588,-0.1465 q -0.02441,-0.1038 -0.02441,-0.2014 0,-0.2198 0.274658,-0.6104 l -0.115967,-0.079 -0.134277,0.079 q -0.04883,-0.2075 -0.04883,-0.238 0,-0.098 0.09766,-0.1709 0.10376,-0.079 0.238037,-0.079 l 0.152588,0.012 0.04883,-0.1159 0.158691,-0.024 0.604249,-0.2869 0.170898,-0.073 q 0.128174,0.1526 0.128174,0.2625 0,0.067 -0.04883,0.098 l -0.128174,0.1037 -0.262451,0.3845 -0.08545,0.061 -0.01221,0.1892 -0.164794,0.2502 -0.225831,0.3113 -0.134277,0.2136 -0.152588,0.5982 -0.146484,0.4638 -0.03052,0.3601 -0.170898,0.4883 -0.01221,0.2259 -0.10376,0.4638 0.05493,0.2991 -0.06714,0.2258 0.213623,0.6897 0.01221,0.1343 q -0.07324,0.01 -0.12207,0.079 -0.04883,0.067 -0.04883,0.1587 0,0.116 0.207519,0.1526 l 0.06714,0.1465 0.109863,0.2869 0.286865,0.4028 0.04883,0.1343 0.128174,0.055 0.22583,0.1831 0.573731,0.177 0.372314,0.098 0.22583,0.079 q 0.158692,0.1831 0.238037,0.1831 0.06714,0 0.177002,-0.2197 l 0.708008,-0.043 0.128174,0.1159 0.134277,-0.061 0.439454,-0.1648 0.164794,-0.1282 0.463868,-0.2075 0.311279,-0.2624 0.146484,-0.024 0.415039,-0.2625 0.286866,-0.079 q 0,0 0.04883,-0.073 l -0.109864,-0.073 0.134278,-0.092 0.201416,-0.1587 0.378418,-0.6042 0.183105,-0.1465 q 0.04883,-0.067 0.04883,-0.2502 l 0,-0.073 0,-0.3662 0.01221,-0.4517 q 0.09155,-0.073 0.115967,-0.122 0.02441,-0.055 0.02441,-0.2014 l -0.213623,-0.1587 -0.06104,-1.3672 0.07324,-0.1221 q -0.06104,-0.1099 -0.06104,-0.177 0,-0.1038 0.06104,-0.2624 l -0.06104,-0.049 -0.01221,-0.1526 -0.04883,-0.5249 q 0,-0.073 0.09766,-0.238 l -0.274658,-0.2869 0.07324,-0.1953 0.115967,0 q 0.189209,-0.1953 0.311279,-0.238 l 0.140381,-0.049 0.12207,-0.079 0.164795,0.024 q 0.10376,-0.177 0.152588,-0.2136 0.04883,-0.037 0.195313,-0.037 l 0.06103,0.1648 0,0.1404 z"
         style=""
         id="path6107" />
      <path
         d="m 33.41118,1039.085 -0.06104,0.1709 -0.01221,0.1281 -0.439453,0.3235 -0.262451,0.2381 -0.152588,0.024 -0.22583,-0.024 q -0.22583,-0.024 -0.415039,-0.067 -0.183105,-0.049 -0.170898,-0.049 l -0.01221,0 -0.408936,0.031 -0.238037,-0.043 q -0.08545,0.012 -0.146485,0.067 -0.05493,0.049 -0.05493,0.1099 0,0.067 0.07324,0.085 l -0.01221,0.7874 q -0.262451,0.073 -0.262451,0.2258 l 0.01221,0.1404 0.250244,0.049 0.02441,0.586 0.01221,0.1281 -0.06104,0.1831 q -0.07324,-0.037 -0.12207,-0.037 -0.152588,0 -0.152588,0.1404 0,0.061 0.09766,0.1892 0.08545,-0.1037 0.115967,-0.1037 0.01831,0 0.12207,0.091 l 0.01221,0.824 0.02441,0.1221 0.140381,0.2868 q 0.01221,0.037 0.01221,0.2136 0.152588,0.092 0.231934,0.116 0.08545,0.024 0.231933,0.024 0.195313,0 0.384522,-0.067 0.195312,-0.067 0.311279,-0.1709 l 0.604248,-0.5493 q 0.03662,-0.043 0.09766,-0.043 0.07324,0 0.213623,0.079 l -0.03662,0.1343 q -0.128174,0.5066 -0.213623,0.5371 l -1.434326,0.5249 -0.250244,0.1281 -0.189209,-0.1159 -0.128174,-0.024 -0.06104,0.1648 -0.109863,0.012 q -0.183106,0 -0.427246,-0.177 -0.256348,-0.2076 -0.274659,-0.3113 l -0.03662,-0.177 -0.07324,-0.2075 0.01221,-0.3418 0,-0.3846 0.12207,-0.4028 -0.03662,-0.1465 -0.02441,-0.2136 0,-0.1404 0.02441,-0.5859 -0.01221,-0.1648 -0.02441,-0.2075 q 0,-0.024 0.01221,-0.024 l 0.158692,-0.1892 q 0.03052,-0.043 0.03052,-0.073 0,-0.1404 -0.213623,-0.1404 l -0.04883,-0.073 q 0.06104,-0.4456 0.06104,-0.8911 -0.292968,-0.061 -0.439453,-0.061 -0.378418,0 -0.762939,0.1282 -0.04883,-0.043 -0.04883,-0.091 0,-0.1038 0.04883,-0.1343 l 0.238037,-0.2014 0.03662,-0.1404 q 0.01831,-0.049 0.06104,-0.079 0.04273,-0.031 0.06714,-0.031 l 0.708008,-0.024 0.164794,-0.024 -0.01221,-0.1404 -0.03662,-1.3 -0.152588,-0.3479 -0.03662,-0.1892 q 0.183106,-0.2564 0.366211,-0.3663 0.183106,-0.1098 0.469971,-0.1586 0.12207,-0.1893 0.213623,-0.1893 0.164795,0 0.164795,0.5555 0,0.8423 -0.152588,1.1963 -0.08545,0.2502 -0.170898,0.2502 l 0,0.2869 q 0.09155,0 0.12207,0.018 0.03052,0.012 0.07324,0.073 l -0.03662,0.1709 0.02441,0.1404 0.128174,0.012 0.610351,0.1343 q 0.07324,0.024 0.201416,0.024 0.134278,0 0.189209,-0.024 l 0.238038,-0.073 0.457763,-0.049 0.354004,-0.1282 0.12207,0 0.04883,0 0.14038,0 q 0.01221,0.049 0.01221,0.043 z"
         style=""
         id="path6109" />
      <path
         d="m 38.336718,1039.2925 q 0,0.031 -0.02441,0.055 l -0.347901,0.2747 -0.189209,0.1953 -0.109863,0.043 -0.164795,-0.1038 -0.109863,-0.1098 -0.366211,-0.012 -0.347901,-0.1404 -0.134277,-0.037 q -0.07935,0.1343 -0.164795,0.1709 -0.08545,0.03 -0.3479,0.03 l -0.201416,0.085 -0.152588,-0.049 -0.122071,0.098 -0.488281,0.3784 q -0.12207,0.1587 -0.140381,0.5859 l -0.01221,0.4639 -0.134277,0.085 q 0.12207,0.2076 0.12207,0.4029 l 0.09155,0 0.01221,0.1709 0.02441,0.7873 0.01221,0.4151 -0.02441,0.3723 q -0.189209,0.1098 -0.189209,0.177 0,0.012 0.04883,0.1098 l 0.164795,-0.037 -0.01221,0.055 0.04883,0.2441 0,0.031 q 0,0.092 -0.09766,0.1892 -0.09766,0.098 -0.201416,0.1099 l -0.238037,0.024 -0.360108,0.1892 -0.152587,-0.091 0.02441,-0.1221 0.08545,-0.354 -0.03662,-0.47 0.03662,-0.067 0.128174,0 0,-0.073 -0.01221,-0.1098 -0.07324,-0.177 -0.01831,-0.2503 -0.04883,-0.2136 0,-0.012 0,-0.1648 0.01221,-0.1953 q 0.02441,-0.03 0.04883,-0.061 0.03052,-0.037 0.07324,-0.1037 0.04883,-0.067 0.10376,-0.1648 l 0.06104,-0.1465 -0.01221,-0.061 q -0.286865,0 -0.286865,-0.1282 l 0.02441,-0.4639 -0.03662,-0.4577 q 0.01831,-0.061 0.07934,-0.116 l 0,-0.177 -0.07934,-0.073 -0.02441,-0.1465 -0.01221,-0.3296 -0.134278,-0.2625 q 0.04272,-0.2197 0.195313,-0.3723 l 0.378418,-0.2014 0.22583,-0.1465 q 0.170898,0.049 0.231933,0.116 0.06714,0.067 0.06714,0.2197 l 0,0.037 0,0.1648 q 0,0.2259 0.09766,0.2259 l 0.02441,0 0.31128,-0.1648 0.305176,-0.116 0.524902,-0.2869 0.170898,-0.073 0.140381,0.037 0.274658,-0.085 q 0.238037,-0.073 0.360108,-0.073 l 0.262451,0.024 q 0.12207,0.1709 0.201416,0.1709 0.01221,-0.01 0.01831,-0.01 0.0061,-0.01 0.01831,-0.01 l 0.140381,-0.073 q 0.04883,-0.024 0.07324,-0.024 0.152588,0 0.286865,0.1648 0.09766,0.1159 0.09766,0.2075 z"
         style=""
         id="path6111" />
      <path
         d="m 44.2083,1043.9922 -0.06104,0.116 -0.09766,0.1464 -0.177002,0.067 -0.250244,0.1343 -0.238037,0.073 q -0.22583,0.091 -0.262451,0.091 -0.04272,0 -0.08545,-0.049 -0.03662,-0.043 -0.03662,-0.079 0,-0.061 0.06104,-0.2747 0.03052,-0.061 0.04883,-0.2136 l -0.12207,0.079 -0.549317,0.1831 q -0.164795,0.079 -0.32959,0.079 l -0.01221,0 -0.238037,0 -0.286865,0.1343 -0.195313,0.024 -0.567627,0.1159 -0.231933,-0.037 -0.164795,0.061 -0.115967,0.024 -0.183105,-0.012 -0.402832,-0.086 -0.274659,-0.024 q -0.280761,-0.037 -0.488281,-0.1892 -0.201416,-0.1587 -0.299072,-0.4028 l -0.164795,-0.061 -0.03662,-0.1526 -0.01221,-0.1098 -0.08545,-0.2869 0.22583,-0.4516 0.07324,-0.2015 q 0.03662,-0.079 0.22583,-0.2319 l 0.476074,-0.3906 0.201416,-0.073 0.335694,-0.1403 q 0.0061,0 0.02441,0.01 0.01831,0 0.03662,0.01 0.12207,-0.2625 0.463867,-0.2625 l 0.03662,-0.037 0.128174,0 q 0.07935,-0.098 0.158691,-0.1343 0.07935,-0.037 0.299073,-0.079 l 0.762939,-0.1343 0.22583,0.024 0.286865,-0.061 0.512696,-0.055 q 0.262451,-0.061 0.262451,-0.2502 0,-0.024 -0.01221,-0.037 l -0.06103,-0.2747 0.04883,-0.3967 q -0.01831,-0.1282 -0.09155,-0.1831 -0.07324,-0.061 -0.219727,-0.079 l -0.08545,-0.1403 q -0.134277,-0.2198 -0.219726,-0.2808 -0.08545,-0.067 -0.323487,-0.116 l -0.3479,-0.079 -0.335693,-0.012 -0.164795,0.024 q -0.05493,-0.024 -0.08545,-0.061 -0.03052,-0.037 -0.04883,-0.1099 l -0.164795,0.073 -0.189209,0.177 -0.598144,0.2991 q -0.189209,0.1038 -0.250244,0.2014 l -0.08545,0.1221 q -0.06103,0.098 -0.164794,0.098 l -0.122071,-0.024 -0.177002,-0.085 -0.189209,-0.037 q -0.09155,-0.031 -0.183105,-0.1038 -0.09155,-0.073 -0.09155,-0.1343 0,-0.037 0.01221,-0.037 l 0.10376,-0.073 0.195312,-0.1526 0.213623,-0.037 0.323487,-0.1648 0.402832,-0.1343 0.109863,-0.024 0.262451,-0.1404 0.213623,0.037 0.738526,-0.1587 0.311279,0.012 0.238037,0 0.250244,0.085 0.726319,0.1404 0.109863,0.061 0,0.085 -0.08545,0.049 q 0.03662,0.2136 0.152588,0.2136 0.01221,-0.01 0.01831,-0.01 0.0061,-0.01 0.01831,-0.01 l 0.170898,-0.073 0.02441,0 q 0.06104,0 0.07935,0.061 l 0.12207,0.2258 0.128174,0.098 0,0.1403 -0.02441,0.3113 q 0,0.2014 0.195312,0.3479 l 0.07935,0.9033 -0.164795,0.2259 0.189209,0.2197 0.01221,0.079 -0.03662,0.5738 0.04883,0.4394 0,0.098 0,0.1404 -0.08545,0.024 q 0.01221,0.1526 0.01831,0.1953 0.0061,0.043 0.04272,0.1282 0.03662,0.079 0.08545,0.1892 l 0.08545,0.1953 z m -0.970459,-1.062 q -0.09155,-0.079 -0.115967,-0.1343 l 0.02441,-0.2502 -0.04883,-0.5616 0.07324,-0.1648 -0.195313,-0.1098 -0.103759,0.024 -0.561524,-0.037 -0.262451,0.012 -0.201416,-0.1404 -0.12207,0.073 -0.335694,0.012 -0.238037,0.092 -0.140381,-0.079 -0.170898,0.1038 -0.915527,0.4395 -0.201416,0.1464 -0.158692,0.2381 -0.213623,0.1282 q -0.04883,0.049 -0.04883,0.1098 0,0 0,0.01 0.0061,0.01 0.01221,0.018 l 0.04883,0.073 -0.01221,0.055 0.134278,0.5493 -0.134278,0.3479 0.09766,0.1221 0.164795,-0.1953 q 0.08545,0.073 0.158692,0.1221 0.07324,0.049 0.177002,0.085 0.103759,0.031 0.262451,0.067 l 0.128174,0.1709 0.421142,0.043 0.115967,-0.116 0.12207,0.061 0.08545,-0.049 0.06714,-0.037 q 0.146485,0.049 0.170899,0.049 0.183105,0 0.476074,-0.1709 0.01831,-0.012 0.04883,-0.024 0.03052,-0.018 0.09155,-0.055 0.549316,0 0.726318,-0.2259 l 0.12207,-0.1587 0.299073,-0.2502 0.01221,-0.073 -0.01221,-0.079 q 0.09155,-0.031 0.115967,-0.073 0.02441,-0.043 0.03662,-0.1648 z"
         style=""
         id="path6113" />
      <path
         d="m 51.324999,1049.6685 q 0,0.1953 -0.09766,0.3784 -0.03052,0.049 -0.128174,0.091 -0.09766,0.043 -0.573731,0.232 l -0.164795,0.061 -0.219726,-0.049 0.01221,-0.1404 0.01221,-0.2503 0.207519,-0.5493 q 0.0061,-0.012 0.01221,-0.031 0.0061,-0.018 0.0061,-0.018 0,-0.061 -0.10376,-0.061 l 0.01221,-0.2503 q -0.0061,-0.061 -0.0061,-0.1587 0,-0.1831 0.04272,-0.2441 l 0.09155,-0.1343 0.06103,-0.098 q -0.04272,-0.1221 -0.164795,-0.177 l -0.01221,-0.1282 0.02441,-0.4334 0.01221,-0.1404 0,-0.1464 0,-0.177 0.06714,-0.012 -0.06714,-0.3663 q 0.03662,-0.091 0.07324,-0.122 0.03662,-0.03 0.164794,-0.061 l -0.03662,-0.1648 -0.134277,-0.2868 q -0.02441,-0.037 -0.02441,-0.1892 l 0,-0.061 0.01221,-0.4272 0,-0.049 0,-0.2503 -0.01221,-0.098 q 0,-0.1099 0.03052,-0.1587 0.03052,-0.043 0.14038,-0.079 l -0.262451,-0.4028 q 0.115967,-0.2014 0.115967,-0.3113 0,-0.067 -0.09766,-0.116 -0.09766,-0.055 -0.244141,-0.055 l -0.03662,0 -0.524902,0.1953 -0.286866,0.067 -0.12207,0.037 -0.177002,-0.037 -0.115967,0.024 q -0.24414,0.2624 -0.46997,0.2624 l -0.02441,0 -1.000977,-0.055 q -0.366211,-0.018 -0.463867,-0.049 l -0.524902,-0.2625 -0.378418,-0.073 q -0.115967,-0.067 -0.335694,-0.3601 l -0.09766,-0.177 0,-0.024 0.09766,-0.2747 -0.03662,-0.061 q -0.10376,0.061 -0.140381,0.061 -0.07324,0 -0.115967,-0.1038 -0.04272,-0.1037 -0.158691,-0.5249 l -0.03662,-0.1465 0.299072,-0.1647 -0.02441,-0.073 q -0.274658,-0.037 -0.274658,-0.1648 l 0.01221,-0.2991 q 0.140381,-0.3784 0.463867,-0.9765 l 0.201416,-0.012 q 0.06714,-0.4822 0.323487,-0.6836 l 0.439453,-0.3784 0.384521,-0.3357 0.152588,-0.061 0.213623,-0.177 0.476074,-0.098 0.384522,-0.2259 0.274658,0.012 0.390625,-0.012 0.158691,0.098 0.573731,0.024 0.140381,0.024 0.177002,0.177 q 0.01221,0 0.01831,0.01 0.01221,0 0.01831,0.01 0.07934,0 0.22583,-0.1648 l 0.08545,0.018 0.799561,-0.2686 q 0,-0.012 0.02441,-0.012 0.04883,0 0.07935,0.067 0.03662,0.061 0.03662,0.1587 l -0.01831,0.2625 -0.04883,0.5798 -0.03662,0.1831 0,0.012 0.01221,0.1892 -0.02441,0.2259 -0.134278,0.024 -0.03052,0.061 0.06714,0.2258 q 0.170899,0.1282 0.170899,0.3785 l 0,0.2319 -0.01221,1.0132 -0.12207,0.079 q -0.01221,0.024 -0.01221,0.049 0,0.098 0.170899,0.2381 l -0.01221,0.1587 0.09155,0.354 -0.115967,0.4455 0,0.043 0.06714,0.3967 0.01221,0.2014 0,0.098 -0.04272,1.2146 0,0.4272 q -0.07935,0.012 -0.109863,0.043 -0.03052,0.03 -0.03662,0.1282 l -0.01221,0.1404 0.109863,0.085 0.02441,0.1282 0,0.2625 0.06714,0.2075 -0.02441,0.6775 0.09766,0.8362 -0.04883,0.5004 0.07324,0.3235 q 0.02441,0.1587 0.02441,0.2259 z m -0.848389,-6.4515 -0.128174,-0.2319 0.01221,-0.2014 0.03052,-0.2869 0.04883,-0.2746 -0.128174,-1.062 0.02441,-0.5677 -0.06104,-0.2868 -0.03662,-0.3846 q -0.02441,-0.1464 -0.10376,-0.2014 -0.07324,-0.061 -0.231933,-0.061 l -0.250244,-0.049 0,0.073 q -0.280762,0.061 -0.427247,0.061 -0.12207,0 -0.207519,-0.03 -0.07935,-0.037 -0.164795,-0.1037 l -0.05493,-0.031 -0.372314,0.055 -0.189209,-0.092 -0.08545,-0.012 q -0.250244,0 -0.500489,0.049 -0.158691,0.024 -0.213623,0.079 l -0.286865,0.2624 -0.384521,0.2747 -0.238037,0.3235 -0.262452,0.4761 q -0.04883,0.079 -0.07934,0.2502 l -0.04883,0 q -0.08545,0.3113 -0.08545,0.3113 0,0.037 0.01221,0.061 l 0.06104,0.067 -0.02441,0.1098 -0.02441,0.2014 0.01221,0.073 0.274659,0.8728 0.01221,0.2136 q 0.04883,0.1343 0.390625,0.2014 l -0.01221,0.2136 q 0,0.1343 0.08545,0.1343 l 0.323486,-0.012 q 0.02441,0 0.140381,0.037 0.238037,0.098 0.384522,0.2625 0.396728,-0.1343 0.57373,-0.1343 0.09155,0 0.238037,0.049 l 0.189209,0.073 0.76294,-0.2197 0.561523,-0.1282 q 0.146484,-0.079 0.189209,-0.3113 l 0.262451,-0.012 0.01221,-0.092 z"
         style=""
         id="path6115" />
      <path
         d="m 58.301317,1044.0349 q -0.04272,0.1587 -0.183105,0.2197 l -0.701905,0.3052 q -0.189209,-0.1098 -0.189209,-0.354 l 0.01221,-0.3479 -0.109863,-0.024 -0.402832,0.1892 -0.561523,0.2747 -0.22583,0.1098 -0.738526,0.1404 -0.238037,0.073 -0.06103,0 q -0.06104,0 -0.08545,-0.012 l -0.22583,-0.091 -0.274658,0.079 -0.250245,-0.2136 -0.488281,0.073 q -0.07324,-0.031 -0.213623,-0.1099 -0.140381,-0.079 -0.238037,-0.177 -0.274658,-0.3052 -0.274658,-0.6226 0,-0.098 0.128174,-0.2014 l -0.201416,-0.073 -0.01221,-0.2381 -0.01221,-0.3296 q 0,-0.1464 0.04883,-0.2441 l 0.115966,-0.2136 -0.115966,-0.3418 0.01221,-0.3601 -0.01221,-0.4151 q 0.0061,-0.037 0.128173,-0.4211 l 0,-0.092 -0.115966,0.055 -0.07324,-0.079 0,-0.122 0.01221,-0.7386 q 0,-0.1709 -0.03662,-0.2624 l -0.04883,-0.073 q 0,-0.012 -0.0061,-0.018 0,-0.012 -0.0061,-0.018 0,-0.1037 0.146485,-0.1892 l 0.07324,-0.037 0.45166,-0.1892 q 0.219727,-0.086 0.299072,-0.086 0.09155,0 0.164795,0.1709 l 0.06104,0.1404 q -0.12207,0.3418 -0.12207,0.6348 l 0.03662,0.354 -0.01221,0.1465 -0.10376,0.299 q -0.0061,0.1648 -0.01221,0.232 -0.0061,0.061 -0.01221,0.1098 0,0.092 0.03662,0.1831 l 0.10376,0.177 -0.140381,0.4639 0.04883,0.1465 -0.04883,0.2624 -0.04883,0.354 q 0,0.049 0.01221,0.073 l 0.08545,0.1526 0.04272,0.647 q 0.03662,0.177 0.152588,0.2502 0.12207,0.073 0.494385,0.1892 l 0.45166,0.1221 q 0.12207,0.024 0.408935,0.024 0.20752,0 0.305176,-0.037 l 0.347901,-0.1343 0.372314,0.098 q 0.09766,-0.03 0.128174,-0.2014 l 0.201416,-0.1098 0.274658,-0.3785 0.22583,-0.1831 q 0.09155,-0.122 0.109863,-0.3418 l 0.04883,-0.6225 0.04883,-0.1343 -0.134278,-0.1404 0.01221,-0.2258 0.02441,-0.9644 -0.03662,-0.3234 -0.06103,-0.3724 q 0,-0.091 0.109863,-0.2014 l -0.02441,-0.1098 -0.09766,-0.012 -0.03052,-0.1893 0,-0.049 0.05493,-0.1892 0,-0.1282 0.09766,0.031 0.677491,-0.2381 q 0.0061,0 0.01221,-0.01 0.0061,-0.01 0.01221,-0.01 0.06714,0 0.109863,0.116 0.04883,0.1098 0.04883,0.2929 l -0.04883,1.2391 -0.08545,0.9521 -0.164795,-0.067 q -0.07324,0.1709 -0.07324,0.238 l 0.03662,0.1282 q 0.07324,-0.024 0.109863,-0.024 0.05493,0 0.09155,0.03 0.03662,0.031 0.03662,0.079 l -0.06103,1.1475 0.12207,0.2136 0.06103,0.5921 q 0.03052,0.037 0.07935,0.098 0.05493,0.055 0.134277,0.177 z"
         style=""
         id="path6117" />
      <path
         d="m 65.387499,1043.156 q 0,0.079 -0.03052,0.1404 l -0.12207,0.2136 -0.286865,0.4944 -0.262451,0.018 -0.164795,0.1343 q -0.05493,0.055 -0.189209,0.073 l -1.098633,0.2136 -0.170899,0.061 -0.390625,-0.037 -0.561523,0.049 -0.634766,-0.037 -0.177002,0 q -0.134277,-0.1038 -0.164795,-0.1221 l -0.598144,-0.2136 -0.201416,-0.1892 -0.396729,-0.2747 -0.317382,-0.4211 -0.122071,-0.1038 q 0.07324,-0.1465 0.07324,-0.2624 0,-0.049 -0.02441,-0.073 l -0.164795,-0.2624 -0.03662,-0.3479 -0.01221,-0.2808 q 0,-0.1404 0.06714,-0.3723 0.10376,-0.3662 0.170898,-0.4395 l 0.225831,-0.2868 0.115966,-0.2625 0.286866,-0.2746 0.311279,-0.409 0.274658,-0.1526 0.396729,-0.2746 0.262451,-0.177 0.09155,-0.061 0.183106,-0.037 0.55542,-0.177 0.433349,-0.049 0.262452,-0.1099 0.128173,-0.012 q 0.31128,0 0.524903,0.3357 0.115967,-0.012 0.170898,-0.1282 l 0.164795,0.1404 0.22583,0.1221 0.512696,0.5005 q 0.09766,0.122 0.146484,0.2136 0.05493,0.085 0.10376,0.1831 0.05493,0.098 0.09155,0.2136 0.04273,0.116 0.122071,0.354 l 0.04883,0.1526 -0.06104,0.024 -0.238037,-0.049 -0.262452,0.085 -0.201416,-0.037 -0.22583,0.061 -0.427246,-0.049 -0.408935,0.024 -0.427246,-0.073 -0.695801,0.012 -0.341797,-0.012 -0.823975,0.1099 -0.299072,-0.012 -0.415039,0.122 -0.146484,0.031 -0.02441,0.1464 q -0.01221,0.1526 -0.04272,0.2076 -0.03052,0.055 -0.134277,0.1281 l 0.01221,0.116 q 0.201416,0.1526 0.213623,0.1892 l 0.158691,0.6226 0.07935,0.1526 q -0.06104,0.061 -0.06104,0.1098 0,0 0,0.01 0.0061,0.01 0.01221,0.018 l 0.231933,0.073 0.05493,0.1526 q 0.06103,0.2136 0.158691,0.2624 l 0.32959,0.1343 0.109863,0.238 q 0.08545,0.043 0.274659,0.067 l 0.08545,0.1587 0.189209,0.024 0.524902,0.1892 0.439453,-0.085 1.159668,-0.1892 0.250244,-0.1526 0.390625,-0.238 0.323487,-0.4211 q 0.08545,-0.1038 0.201416,-0.1038 0.213623,0 0.213623,0.1892 z m -1.44043,-2.8747 q 0,-0.098 -0.22583,-0.409 l -0.421142,-0.3052 -0.140381,-0.1464 -0.201416,-0.012 -0.463868,-0.037 -0.109863,0.024 -0.262451,0.1465 -0.335693,0.079 -0.427246,0.1587 -0.164795,0.061 -0.195313,0.293 q -0.183105,0.1281 -0.201416,0.1587 l -0.02441,0.073 0.750732,0.055 0.08545,-0.012 0.140381,-0.043 0.134277,0.031 0.360107,0.073 0.01831,0 0.408935,-0.073 0.128174,-0.031 0.09766,0.1404 0.140381,0 0.53711,-0.1099 0.219726,0.024 q 0.152588,-0.018 0.152588,-0.1403 z"
         style=""
         id="path6119" />
    </g>
  </g>
  <g
     inkscape:groupmode="layer"
     id="layer3"
     inkscape:label="Layer 3"
     transform="translate(0,-967.32284)" />
</svg>
